<svg fill="#6b7280" height="200px" width="200px" version="1.1" id="Capa_1" xmlns="http://www.w3.org/2000/svg" xmlns:xlink="http://www.w3.org/1999/xlink" viewBox="0 0 295.565 295.565" xml:space="preserve">
  <g id="SVGRepo_bgCarrier" stroke-width="0"></g>
  <g id="SVGRepo_tracerCarrier" stroke-linecap="round" stroke-linejoin="round"></g>
  <g id="SVGRepo_iconCarrier"> 
    <g>
      <path d="M294.498,164.504l-38.588-49.317h14.333c1.899,0,3.642-1.074,4.498-2.771c0.855-1.702,0.677-3.742-0.458-5.27 l-28.098-37.812h5.336c1.86,0,3.582-1.036,4.448-2.688c0.875-1.652,0.756-3.652-0.299-5.195l-39.145-57.21 c-0.946-1.369-2.498-2.19-4.15-2.19c-1.662,0-3.216,0.816-4.161,2.18l-23.697,34.458l26.574,38.826 c3.204,4.688,3.554,10.71,0.895,15.721c-0.736,1.384-1.662,2.618-2.727,3.688l21.398,28.799c3.454,4.648,3.981,10.754,1.374,15.935 c-1.902,3.767-5.176,6.489-9.058,7.694l18.224,23.295h49.338c1.921,0,3.682-1.101,4.518-2.832 C295.901,168.083,295.682,166.022,294.498,164.504z"></path>
      <path d="M202.592,139.841h15.845c1.901,0,3.644-1.076,4.499-2.773c0.856-1.702,0.678-3.743-0.457-5.27L192.27,91.15h6.251 c1.871,0,3.582-1.034,4.459-2.687c0.875-1.652,0.756-3.653-0.299-5.196l-42.171-61.614c-0.946-1.369-2.498-2.19-4.15-2.19 c-1.662,0-3.216,0.816-4.16,2.185l-29.312,42.628l27.002,39.444c3.204,4.688,3.553,10.709,0.896,15.721 c-0.827,1.548-1.882,2.916-3.127,4.065l22.674,30.517c3.443,4.652,3.972,10.749,1.363,15.925c-2.04,4.056-5.693,6.901-9.963,7.942 l17.966,22.967h60.305c1.922,0,3.683-1.101,4.519-2.831c0.847-1.733,0.627-3.793-0.557-5.311L202.592,139.841z"></path>
      <path d="M141.162,168.132h16.941c1.9,0,3.642-1.075,4.498-2.773c0.855-1.701,0.678-3.736-0.458-5.27l-31.75-42.733h6.928 c1.871,0,3.584-1.035,4.459-2.688c0.875-1.652,0.756-3.652-0.299-5.195L97.09,44.626c-0.945-1.369-2.498-2.19-4.15-2.19 c-0.01,0-0.01,0-0.02,0c-1.652,0-3.195,0.821-4.141,2.18L44.19,109.469c-1.055,1.538-1.174,3.539-0.31,5.196 c0.877,1.657,2.588,2.692,4.459,2.692h7.067l-31.879,42.729c-1.136,1.527-1.314,3.563-0.459,5.27 c0.846,1.702,2.588,2.777,4.499,2.777h17.11L1.074,223.615c-1.184,1.513-1.413,3.579-0.567,5.31 c0.846,1.737,2.597,2.837,4.528,2.837h64.426v51.99h0.05c0.268,5.409,10.58,9.763,23.31,9.763c12.73,0,23.041-4.354,23.31-9.763 l0.051-51.99h64.435c1.921,0,3.684-1.1,4.518-2.832c0.847-1.73,0.627-3.791-0.557-5.31L141.162,168.132z"></path>
    </g>
  </g>
</svg>